<?xml version="1.0" encoding="utf-8"?>
<!-- Generator: Adobe Illustrator 21.0.0, SVG Export Plug-In . SVG Version: 6.00 Build 0)  -->
<svg version="1.1" id="Layer_1" xmlns="http://www.w3.org/2000/svg" xmlns:xlink="http://www.w3.org/1999/xlink" x="0px" y="0px"
	 viewBox="0 0 1365.8 1100.9" style="enable-background:new 0 0 1365.8 1100.9;" xml:space="preserve">
<style type="text/css">
	.st0{fill:#050302;}
</style>
<path class="st0" d="M1366,555.9c0,182.6,0,363.3,0,545.9c-458.5,0-916.9,0-1375.4,0c0-321.6,0-641.3,0-962.9
	c1.4-1.1,2.9-2.1,4.2-3.4c32.4-30.4,66.8-58.1,105-80.9c39.8-23.7,82-41.5,128.3-48.5c7.5-1.1,14.8-2,22.3-3.1c11.4,0,22.8,0,34.2,0
	c1.1,0.3,2.2,0.8,3.3,0.9c39.3,3.1,75.7,15.3,109.9,34.7c43.7,24.8,80,58.2,111.9,96.4c25.3,30.3,49.3,61.5,74.6,91.8
	c52.1,62.6,107.4,122.3,167.5,177.4c59.1,54.2,121.8,103.6,192.2,142.7c59.2,32.9,121.4,57.4,189.3,65.5
	c61.8,7.4,121.6-0.1,178.3-26.3C1330.4,577.5,1347.9,566.1,1366,555.9z"/>
</svg>
